<svg id="visual" viewBox="0 0 900 600" width="900" height="600" xmlns="http://www.w3.org/2000/svg" xmlns:xlink="http://www.w3.org/1999/xlink" version="1.1"><path d="M0 151L8.3 140C16.7 129 33.3 107 50 97C66.7 87 83.3 89 100 84C116.7 79 133.3 67 150 75C166.7 83 183.3 111 200 118C216.7 125 233.3 111 250 108C266.7 105 283.3 113 300 107C316.7 101 333.3 81 350 82C366.7 83 383.3 105 400 117C416.7 129 433.3 131 450 127C466.7 123 483.3 113 500 114C516.7 115 533.3 127 550 123C566.7 119 583.3 99 600 93C616.7 87 633.3 95 650 91C666.7 87 683.3 71 700 76C716.7 81 733.3 107 750 109C766.7 111 783.3 89 800 72C816.7 55 833.3 43 850 45C866.7 47 883.3 63 891.7 71L900 79L900 0L891.7 0C883.3 0 866.7 0 850 0C833.3 0 816.7 0 800 0C783.3 0 766.7 0 750 0C733.3 0 716.7 0 700 0C683.3 0 666.7 0 650 0C633.3 0 616.7 0 600 0C583.3 0 566.7 0 550 0C533.3 0 516.7 0 500 0C483.3 0 466.7 0 450 0C433.3 0 416.7 0 400 0C383.3 0 366.7 0 350 0C333.3 0 316.7 0 300 0C283.3 0 266.7 0 250 0C233.3 0 216.7 0 200 0C183.3 0 166.7 0 150 0C133.3 0 116.7 0 100 0C83.3 0 66.7 0 50 0C33.3 0 16.7 0 8.3 0L0 0Z" fill="#004cbb"></path><path d="M0 271L8.3 279C16.7 287 33.3 303 50 317C66.7 331 83.3 343 100 314C116.7 285 133.3 215 150 224C166.7 233 183.3 321 200 334C216.7 347 233.3 285 250 265C266.7 245 283.3 267 300 285C316.7 303 333.3 317 350 319C366.7 321 383.3 311 400 312C416.7 313 433.3 325 450 335C466.7 345 483.3 353 500 351C516.7 349 533.3 337 550 312C566.7 287 583.3 249 600 238C616.7 227 633.3 243 650 243C666.7 243 683.3 227 700 229C716.7 231 733.3 251 750 240C766.7 229 783.3 187 800 192C816.7 197 833.3 249 850 285C866.7 321 883.3 341 891.7 351L900 361L900 77L891.7 69C883.3 61 866.7 45 850 43C833.3 41 816.7 53 800 70C783.3 87 766.7 109 750 107C733.3 105 716.7 79 700 74C683.3 69 666.7 85 650 89C633.3 93 616.7 85 600 91C583.3 97 566.7 117 550 121C533.3 125 516.7 113 500 112C483.3 111 466.7 121 450 125C433.3 129 416.7 127 400 115C383.3 103 366.7 81 350 80C333.3 79 316.7 99 300 105C283.3 111 266.7 103 250 106C233.3 109 216.7 123 200 116C183.3 109 166.7 81 150 73C133.3 65 116.7 77 100 82C83.3 87 66.7 85 50 95C33.3 105 16.7 127 8.3 138L0 149Z" fill="#2573ff"></path><path d="M0 505L8.3 514C16.7 523 33.3 541 50 538C66.7 535 83.3 511 100 486C116.7 461 133.3 435 150 431C166.7 427 183.3 445 200 448C216.7 451 233.3 439 250 427C266.7 415 283.3 403 300 396C316.7 389 333.3 387 350 382C366.7 377 383.3 369 400 386C416.7 403 433.3 445 450 463C466.7 481 483.3 475 500 458C516.7 441 533.3 413 550 396C566.7 379 583.3 373 600 380C616.7 387 633.3 407 650 433C666.7 459 683.3 491 700 478C716.7 465 733.3 407 750 404C766.7 401 783.3 453 800 457C816.7 461 833.3 417 850 406C866.7 395 883.3 417 891.7 428L900 439L900 359L891.7 349C883.3 339 866.7 319 850 283C833.3 247 816.7 195 800 190C783.3 185 766.7 227 750 238C733.3 249 716.7 229 700 227C683.3 225 666.7 241 650 241C633.3 241 616.7 225 600 236C583.3 247 566.7 285 550 310C533.3 335 516.7 347 500 349C483.3 351 466.7 343 450 333C433.3 323 416.7 311 400 310C383.3 309 366.7 319 350 317C333.3 315 316.7 301 300 283C283.3 265 266.7 243 250 263C233.3 283 216.7 345 200 332C183.3 319 166.7 231 150 222C133.3 213 116.7 283 100 312C83.3 341 66.7 329 50 315C33.3 301 16.7 285 8.3 277L0 269Z" fill="#6198ff"></path><path d="M0 547L8.3 551C16.7 555 33.3 563 50 560C66.7 557 83.3 543 100 531C116.7 519 133.3 509 150 500C166.7 491 183.3 483 200 489C216.7 495 233.3 515 250 522C266.7 529 283.3 523 300 518C316.7 513 333.3 509 350 493C366.7 477 383.3 449 400 454C416.7 459 433.3 497 450 520C466.7 543 483.3 551 500 540C516.7 529 533.3 499 550 474C566.7 449 583.3 429 600 442C616.7 455 633.3 501 650 523C666.7 545 683.3 543 700 531C716.7 519 733.3 497 750 496C766.7 495 783.3 515 800 500C816.7 485 833.3 435 850 426C866.7 417 883.3 449 891.7 465L900 481L900 437L891.7 426C883.3 415 866.7 393 850 404C833.3 415 816.7 459 800 455C783.3 451 766.7 399 750 402C733.3 405 716.7 463 700 476C683.3 489 666.7 457 650 431C633.3 405 616.7 385 600 378C583.3 371 566.7 377 550 394C533.3 411 516.7 439 500 456C483.3 473 466.7 479 450 461C433.3 443 416.7 401 400 384C383.3 367 366.7 375 350 380C333.3 385 316.7 387 300 394C283.3 401 266.7 413 250 425C233.3 437 216.7 449 200 446C183.3 443 166.7 425 150 429C133.3 433 116.7 459 100 484C83.3 509 66.7 533 50 536C33.3 539 16.7 521 8.3 512L0 503Z" fill="#2573ff"></path><path d="M0 601L8.3 601C16.7 601 33.3 601 50 601C66.7 601 83.3 601 100 601C116.7 601 133.3 601 150 601C166.7 601 183.3 601 200 601C216.7 601 233.3 601 250 601C266.7 601 283.3 601 300 601C316.7 601 333.3 601 350 601C366.7 601 383.3 601 400 601C416.7 601 433.3 601 450 601C466.7 601 483.3 601 500 601C516.7 601 533.3 601 550 601C566.7 601 583.3 601 600 601C616.7 601 633.3 601 650 601C666.7 601 683.3 601 700 601C716.7 601 733.3 601 750 601C766.7 601 783.3 601 800 601C816.7 601 833.3 601 850 601C866.7 601 883.3 601 891.7 601L900 601L900 479L891.7 463C883.3 447 866.7 415 850 424C833.3 433 816.7 483 800 498C783.3 513 766.7 493 750 494C733.3 495 716.7 517 700 529C683.3 541 666.7 543 650 521C633.3 499 616.7 453 600 440C583.3 427 566.7 447 550 472C533.3 497 516.7 527 500 538C483.3 549 466.7 541 450 518C433.3 495 416.7 457 400 452C383.3 447 366.7 475 350 491C333.3 507 316.7 511 300 516C283.3 521 266.7 527 250 520C233.3 513 216.7 493 200 487C183.3 481 166.7 489 150 498C133.3 507 116.7 517 100 529C83.3 541 66.7 555 50 558C33.3 561 16.7 553 8.3 549L0 545Z" fill="#004cbb"></path></svg>